<?xml version="1.0" encoding="UTF-8"?>
<svg id="Layer_2" data-name="Layer 2" xmlns="http://www.w3.org/2000/svg" viewBox="0 0 1366 341.56">
  <defs>
    <style>
      .cls-1 {
        fill: #231f20;
      }
    </style>
  </defs>
  <g id="Layer_1-2" data-name="Layer 1">
    <g>
      <path class="cls-1" d="M79.16,341.56H0V96.9h227.25v70.29H79.16v37.88h145.7v66.88H79.16v69.61Z"/>
      <path class="cls-1" d="M258.93,96.9h85.3v167.88h137.51v76.77h-222.81V96.9Z"/>
      <path class="cls-1" d="M512.74,341.56V96.9h236.12v63.81h-157.64v32.76h140.93v48.8h-140.93v33.1h162.76v66.2h-241.24ZM735.89,0l-76.09,76.09h-56.98L658.78,0h77.12Z"/>
      <path class="cls-1" d="M909.85,96.9c94.18,0,147.75,39.24,147.75,122.5v1.03c0,27.3-5.8,49.82-17.4,68.24-23.89,35.83-67.56,52.89-128.3,52.89h-126.59V96.9h124.54ZM866.86,271.95h39.92c48.8,0,66.2-15.7,66.2-52.21v-.68c0-38.56-17.74-53.23-67.56-53.23h-38.56v106.12Z"/>
      <path class="cls-1" d="M1154.79,299.59l-17.41,41.97h-86.32l110.9-244.66h93.83l110.21,244.66h-85.64l-17.74-41.97h-107.82ZM1178.67,241.58h59.72l-30.03-71.32-29.69,71.32Z"/>
    </g>
  </g>
</svg>