<?xml version="1.0" encoding="UTF-8"?>
<svg id="Layer_1" xmlns="http://www.w3.org/2000/svg" version="1.1" viewBox="0 0 996.9 324.1">
  <!-- Generator: Adobe Illustrator 30.1.0, SVG Export Plug-In . SVG Version: 2.1.1 Build 136)  -->
  <defs>
    <style>
      .st0 {
        fill: #231f20;
      }
    </style>
  </defs>
  <path class="st0" d="M0,324.1V89.2h136.6c9.4,0,16.8,7,16.8,16.8s-7.4,16.4-16.8,16.4H54c-11.1.3-19.5,8.7-19.5,19.5v26.5c0,11.7,8.7,19.8,19.8,19.8h75.5c9.4,0,16.8,7,16.8,16.8s-7.4,16.4-16.8,16.4H56c-11.7,0-20.5,8.7-20.5,20.5v82.2H0Z"/>
  <path class="st0" d="M186.6,324.1V89.2h35.2v178.2c0,14.1,10.1,23.5,23.5,23.5h87.9c10.1,0,17.8,7.4,17.8,16.4s-7.7,16.8-17.8,16.8h-146.6Z"/>
  <path class="st0" d="M381.5,324.1V89.2h129.5c9.7,0,16.8,7,16.8,16.4s-7,16.8-16.8,16.8h-76.5c-10.7,0-18.5,7.7-18.5,18.5v28.9c0,10.7,7.7,18.5,18.5,18.5h56.7c9.1,0,16.4,7,16.4,16.8s-7.4,16.4-16.4,16.4h-56c-11.1,0-19.1,8.1-19.1,19.5v30.5c0,11.1,8.1,19.5,19.1,19.5h75.8c9.7,0,16.8,7,16.8,16.4s-7,16.8-16.8,16.8h-129.5ZM464.1,67c-7.7,6.4-17.8,5.7-23.8-1-6-7-4.7-17.1,3-23.8l38.9-37.2c7.7-6.7,17.8-6.7,23.8.7,5.7,7,5,17.1-2.7,23.8l-39.3,37.6Z"/>
  <path class="st0" d="M565.7,324.1V89.2h85.2c65.4,0,117.4,51.3,117.4,117.4s-52,117.5-117.4,117.5h-85.2ZM648.3,291.5c47,0,82.2-36.2,82.2-84.9s-35.2-85.2-82.2-85.2h-23.8c-12.8,0-23.5,11.1-23.5,25.2v119.8c0,14.1,11.1,25.2,24.2,25.2h23.2Z"/>
  <path class="st0" d="M958,324.1l-25.5-67.8h-94.6l-25.5,67.8h-37.9l82.2-213.8c6.4-16.8,16.4-24.5,29.2-24.5s22.5,7.7,28.9,24.5l82.2,213.8h-38.9ZM850.3,223.7h69.8l-34.9-92.6-34.9,92.6Z"/>
</svg>